HIERARCHY
ROOT Hips
{
	OFFSET 0.000000 88.474243 0.000000
	CHANNELS 6 Xposition Yposition Zposition Zrotation Yrotation Xrotation 
	JOINT Hips_Spine
	{
		OFFSET 0.000000 0.000000 0.000000
		CHANNELS 3 Zrotation Yrotation Xrotation
		JOINT Spine
		{
			OFFSET 0.005100 8.711998 -0.691000
			CHANNELS 3 Zrotation Yrotation Xrotation
			JOINT Spine1
			{
				OFFSET -0.009200 8.660301 -1.275000
				CHANNELS 3 Zrotation Yrotation Xrotation
				JOINT Spine2
				{
					OFFSET 0.006300 9.852501 -1.857000
					CHANNELS 3 Zrotation Yrotation Xrotation
					JOINT Spine2_Neck
					{
						OFFSET 0.000000 0.000000 0.000000
						CHANNELS 3 Zrotation Yrotation Xrotation
						JOINT Neck
						{
							OFFSET 0.016300 11.420799 -0.263300
							CHANNELS 3 Zrotation Yrotation Xrotation
							End Site #name: Head
							{
								OFFSET -0.019200 9.262405 2.362500
							}
						}
					}
					JOINT Spine2_LeftShoulder
					{
						OFFSET 0.000000 0.000000 0.000000
						CHANNELS 3 Zrotation Yrotation Xrotation
						JOINT LeftShoulder
						{
							OFFSET 5.616900 6.732201 -0.345700
							CHANNELS 3 Zrotation Yrotation Xrotation
							JOINT LeftArm
							{
								OFFSET 10.664888 -0.183372 -2.440700
								CHANNELS 3 Zrotation Yrotation Xrotation
								JOINT LeftForeArm
								{
									OFFSET 27.459126 0.000000 0.000000
									CHANNELS 3 Zrotation Yrotation Xrotation
									End Site #name: LeftHand
									{
										OFFSET 21.306858 0.000000 0.000000
									}
								}
							}
						}
					}
					JOINT Spine2_RightShoulder
					{
						OFFSET 0.000000 0.000000 0.000000
						CHANNELS 3 Zrotation Yrotation Xrotation
						JOINT RightShoulder
						{
							OFFSET -5.580300 6.737503 -0.344400
							CHANNELS 3 Zrotation Yrotation Xrotation
							JOINT RightArm
							{
								OFFSET -10.679335 -0.188484 -2.383900
								CHANNELS 3 Zrotation Yrotation Xrotation
								JOINT RightForeArm
								{
									OFFSET -27.503529 0.000000 0.000000
									CHANNELS 3 Zrotation Yrotation Xrotation
									End Site #name: RightHand
									{
										OFFSET -21.306808 0.000000 0.000000
									}
								}
							}
						}
					}
				}
			}
		}
	}
	JOINT Hips_LeftUpLeg
	{
		OFFSET 0.000000 0.000000 0.000000
		CHANNELS 3 Zrotation Yrotation Xrotation
		JOINT LeftUpLeg
		{
			OFFSET 6.857700 -6.739601 0.312100
			CHANNELS 3 Zrotation Yrotation Xrotation
			JOINT LeftLeg
			{
				OFFSET -0.367590 -34.731552 -4.572400
				CHANNELS 3 Zrotation Yrotation Xrotation
				End Site #name: LeftFoot
				{
					OFFSET 0.367590 -34.656704 -6.067400
				}
			}
		}
	}
	JOINT Hips_RightUpLeg
	{
		OFFSET 0.000000 0.000000 0.000000
		CHANNELS 3 Zrotation Yrotation Xrotation
		JOINT RightUpLeg
		{
			OFFSET -6.876100 -6.733299 0.301000
			CHANNELS 3 Zrotation Yrotation Xrotation
			JOINT RightLeg
			{
				OFFSET 0.347353 -34.795158 -4.515900
				CHANNELS 3 Zrotation Yrotation Xrotation
				End Site #name: RightFoot
				{
					OFFSET -0.347353 -34.589367 -6.070300
				}
			}
		}
	}
}
MOTION
Frames: 7
Frame Time: 0.041667
0.482994 -0.009862 -1.299830 -1.424746 4.593896 -3.602747 0.000000 -0.000000 0.000000 0.230984 1.712844 -0.370844 -1.703449 0.698545 4.594684 0.000000 0.000000 0.000000 -2.015749 0.804351 3.914804 0.639441 -1.142991 7.514243 -1.844068 0.589678 4.773807 -1.935499 4.733056 -1.001896 -67.280982 -6.997087 61.599843 0.276736 -33.408191 -0.040256 -1.751869 0.758052 3.929170 1.554010 8.636891 2.593141 69.880907 4.759870 45.068172 0.465303 74.731274 0.789932 0.000000 0.000000 -0.000000 3.835501 11.639528 -10.610636 2.493270 7.634808 15.906267 0.000000 -0.000000 0.000000 -2.941747 -9.339803 -11.879711 -0.416258 -0.682262 15.235533 
0.405483 -0.012044 -1.343375 -1.375435 4.608359 -3.594796 0.000000 -0.000000 0.000000 0.244443 1.707738 -0.370972 -1.688208 0.692272 4.583853 0.000000 0.000000 0.000000 -1.997941 0.797744 3.907251 0.635685 -1.141662 7.516196 -1.829515 0.582919 4.761758 -1.947910 4.719519 -1.004672 -67.295506 -7.047019 61.490742 0.277030 -33.334912 -0.044749 -1.735563 0.750522 3.918892 1.535659 8.633761 2.586584 69.939808 4.750669 45.178143 0.443487 74.455041 0.769396 0.000000 0.000000 -0.000000 3.860652 11.672329 -10.622061 2.496720 7.632346 15.887010 0.000000 -0.000000 0.000000 -2.917560 -9.325599 -11.893364 -0.416970 -0.696483 15.246182 
0.329614 -0.014311 -1.386687 -1.327795 4.617491 -3.588146 0.000000 -0.000000 0.000000 0.255963 1.698836 -0.370176 -1.669847 0.684793 4.574686 0.000000 0.000000 0.000000 -1.975545 0.789356 3.901675 0.635155 -1.136818 7.518064 -1.812610 0.575382 4.751483 -1.960894 4.698787 -1.005561 -67.312676 -7.093589 61.405544 0.277467 -33.264592 -0.049747 -1.716366 0.741357 3.910189 1.516052 8.619872 2.577955 69.986448 4.763431 45.264888 0.426909 74.215780 0.753533 0.000000 0.000000 -0.000000 3.884880 11.712172 -10.637804 2.503531 7.631612 15.877173 0.000000 -0.000000 0.000000 -2.894644 -9.311768 -11.904802 -0.413174 -0.706561 15.254955 
0.255798 -0.016644 -1.429664 -1.282116 4.625774 -3.581010 0.000000 -0.000000 0.000000 0.267773 1.689816 -0.367171 -1.649304 0.675342 4.568372 0.000000 0.000000 0.000000 -1.950889 0.779631 3.897764 0.632532 -1.132056 7.520520 -1.792689 0.565356 4.744628 -1.972014 4.685204 -1.008275 -67.330592 -7.155343 61.282586 0.276047 -33.162959 -0.055061 -1.694424 0.730800 3.903314 1.495609 8.601305 2.568905 70.010387 4.798710 45.318503 0.413825 74.074122 0.739903 0.000000 0.000000 -0.000000 3.909545 11.752184 -10.650937 2.509685 7.634018 15.866938 0.000000 -0.000000 0.000000 -2.873599 -9.299074 -11.923137 -0.406602 -0.712484 15.276987 
0.184475 -0.019058 -1.472418 -1.238651 4.632320 -3.575279 0.000000 -0.000000 0.000000 0.277043 1.676815 -0.363102 -1.628735 0.665184 4.563204 0.000000 0.000000 0.000000 -1.925279 0.767713 3.897119 0.629352 -1.123430 7.519478 -1.771306 0.554291 4.738493 -1.988092 4.669271 -1.009856 -67.346575 -7.216102 61.180338 0.275397 -33.035363 -0.057684 -1.670992 0.718385 3.898141 1.473601 8.589652 2.561963 70.001250 4.833044 45.360958 0.403493 74.011644 0.727265 0.000000 0.000000 -0.000000 3.937085 11.790507 -10.663949 2.517661 7.640420 15.859734 0.000000 -0.000000 0.000000 -2.853929 -9.292683 -11.939392 -0.400426 -0.719245 15.296255 
0.115574 -0.021511 -1.514883 -1.196570 4.637201 -3.569474 0.000000 -0.000000 0.000000 0.287832 1.664278 -0.357616 -1.607238 0.654632 4.559243 0.000000 0.000000 0.000000 -1.898838 0.755096 3.898211 0.627167 -1.111381 7.521001 -1.750461 0.542345 4.734692 -2.003235 4.652169 -1.012437 -67.351831 -7.273966 61.070737 0.274407 -32.898877 -0.061571 -1.648204 0.705764 3.895134 1.439981 8.579602 2.556804 69.961625 4.850035 45.394896 0.398858 74.041806 0.719568 0.000000 0.000000 -0.000000 3.963112 11.828632 -10.679162 2.524556 7.645620 15.854964 0.000000 -0.000000 0.000000 -2.832417 -9.281970 -11.954355 -0.395569 -0.725171 15.311720 
0.048964 -0.023989 -1.557170 -1.154783 4.641867 -3.563975 0.000000 -0.000000 0.000000 0.298990 1.650948 -0.345949 -1.587389 0.643518 4.557193 0.000000 0.000000 0.000000 -1.873921 0.741533 3.901765 0.626076 -1.100192 7.520493 -1.729744 0.530032 4.733361 -2.011580 4.650256 -1.014733 -67.366621 -7.314942 60.962549 0.273261 -32.753132 -0.063580 -1.626629 0.693228 3.894380 1.409515 8.572019 2.552806 69.887313 4.864393 45.416302 0.395976 74.158214 0.712891 0.000000 0.000000 -0.000000 3.987733 11.860621 -10.691884 2.531300 7.653618 15.846735 0.000000 -0.000000 0.000000 -2.813662 -9.275149 -11.967440 -0.391536 -0.733265 15.323233 
